<?xml version="1.0"?>
<svg xmlns="http://www.w3.org/2000/svg" height="512px" viewBox="0 0 64 64" width="512px"><g><path d="m16 20h46v10h-46z" fill="#57a4ff" data-original="#57A4FF"/><path d="m16 6h46v10h-46z" fill="#57a4ff" data-original="#57A4FF"/><path d="m16 34h46v10h-46z" fill="#57a4ff" data-original="#57A4FF"/><path d="m16 48h46v10h-46z" fill="#57a4ff" data-original="#57A4FF"/><g fill="#004fac"><path d="m12 19h-10a1 1 0 0 0 -1 1v10a1 1 0 0 0 1 1h10a1 1 0 0 0 1-1v-10a1 1 0 0 0 -1-1zm-1 10h-8v-8h8z" data-original="#000000" class="active-path"/><path d="m62 19h-46a1 1 0 0 0 -1 1v10a1 1 0 0 0 1 1h46a1 1 0 0 0 1-1v-10a1 1 0 0 0 -1-1zm-1 10h-44v-8h44z" data-original="#000000" class="active-path"/><path d="m12 5h-10a1 1 0 0 0 -1 1v10a1 1 0 0 0 1 1h10a1 1 0 0 0 1-1v-10a1 1 0 0 0 -1-1zm-1 10h-8v-8h8z" data-original="#000000" class="active-path"/><path d="m62 5h-46a1 1 0 0 0 -1 1v10a1 1 0 0 0 1 1h46a1 1 0 0 0 1-1v-10a1 1 0 0 0 -1-1zm-1 10h-44v-8h44z" data-original="#000000" class="active-path"/><path d="m12 33h-10a1 1 0 0 0 -1 1v10a1 1 0 0 0 1 1h10a1 1 0 0 0 1-1v-10a1 1 0 0 0 -1-1zm-1 10h-8v-8h8z" data-original="#000000" class="active-path"/><path d="m62 33h-46a1 1 0 0 0 -1 1v10a1 1 0 0 0 1 1h46a1 1 0 0 0 1-1v-10a1 1 0 0 0 -1-1zm-1 10h-44v-8h44z" data-original="#000000" class="active-path"/><path d="m12 47h-10a1 1 0 0 0 -1 1v10a1 1 0 0 0 1 1h10a1 1 0 0 0 1-1v-10a1 1 0 0 0 -1-1zm-1 10h-8v-8h8z" data-original="#000000" class="active-path"/><path d="m62 47h-46a1 1 0 0 0 -1 1v10a1 1 0 0 0 1 1h46a1 1 0 0 0 1-1v-10a1 1 0 0 0 -1-1zm-1 10h-44v-8h44z" data-original="#000000" class="active-path"/><path d="m48 56h7a1 1 0 0 0 0-2h-7a1 1 0 0 0 0 2z" data-original="#000000" class="active-path"/><path d="m58 56h1a1 1 0 0 0 0-2h-1a1 1 0 0 0 0 2z" data-original="#000000" class="active-path"/></g></g> </svg>
